<?xml version="1.0" standalone="no"?>
<!DOCTYPE svg PUBLIC "-//W3C//DTD SVG 20010904//EN"
 "http://www.w3.org/TR/2001/REC-SVG-20010904/DTD/svg10.dtd">
<svg version="1.0" xmlns="http://www.w3.org/2000/svg"
 width="512.000000pt" height="512.000000pt" viewBox="0 0 512.000000 512.000000"
 preserveAspectRatio="xMidYMid meet">
<metadata>
Created by potrace 1.14, written by Peter Selinger 2001-2017
</metadata>
<g transform="translate(0.000000,512.000000) scale(0.100000,-0.100000)"
fill="#000000" stroke="none">
<path d="M1315 3568 c-38 -87 -118 -289 -439 -1099 -190 -481 -346 -879 -346
-882 0 -4 109 -7 243 -7 l242 0 54 148 c30 81 62 166 72 190 l18 42 368 0 368
0 70 -190 70 -190 95 0 c70 0 101 -4 118 -15 20 -14 21 -14 16 0 -5 13 11 15
130 15 75 0 136 3 136 8 0 4 -177 457 -393 1007 l-393 1000 -207 3 -207 2 -15
-32z m250 -703 c22 -73 152 -438 180 -507 7 -17 -8 -18 -220 -18 -178 0 -226
3 -222 13 64 171 154 418 184 504 21 62 41 109 44 105 3 -4 18 -47 34 -97z"/>
<path d="M2787 3448 c-4 -83 -7 -537 -7 -1010 l0 -858 250 0 250 0 0 390 0
390 374 0 374 0 6 -22 c3 -13 6 -188 6 -390 l0 -368 245 0 245 0 0 1010 0
1010 -245 0 -245 0 -1 -107 c-1 -60 0 -237 1 -395 l2 -288 -381 0 -381 0 0
395 0 395 -243 0 -244 0 -6 -152z"/>
</g>
</svg>
