<?xml version="1.0" standalone="no"?>
<!DOCTYPE svg PUBLIC "-//W3C//DTD SVG 20010904//EN"
 "http://www.w3.org/TR/2001/REC-SVG-20010904/DTD/svg10.dtd">
<svg version="1.0" xmlns="http://www.w3.org/2000/svg"
 width="512.000000pt" height="512.000000pt" viewBox="0 0 512.000000 512.000000"
 preserveAspectRatio="xMidYMid meet">
<metadata>
Created by potrace 1.14, written by Peter Selinger 2001-2017
</metadata>
<g transform="translate(0.000000,512.000000) scale(0.100000,-0.100000)"
fill="#000000" stroke="none">
<path d="M1300 3666 c0 -2 -124 -363 -276 -802 -151 -440 -295 -856 -319 -926
l-44 -128 213 0 212 0 68 210 68 210 336 -2 336 -3 67 -205 67 -205 211 -3
c120 -1 211 1 211 7 0 10 -575 1680 -613 1781 l-25 65 -256 3 c-141 1 -256 1
-256 -2z m379 -779 c61 -186 111 -340 111 -343 0 -2 -103 -4 -230 -4 -162 0
-230 3 -230 11 0 29 223 690 230 683 4 -5 58 -161 119 -347z"/>
<path d="M2680 2740 l0 -930 195 0 195 0 0 385 0 385 400 0 400 0 0 -385 0
-385 198 2 197 3 3 805 c2 443 0 860 -3 928 l-7 122 -194 0 -194 0 0 -385 0
-385 -308 0 c-170 0 -350 3 -400 6 l-92 7 0 378 0 379 -195 0 -195 0 0 -930z"/>
<path d="M4260 1380 l0 -110 -1785 0 -1785 0 0 -60 0 -60 1845 0 1845 0 0 170
0 170 -60 0 -60 0 0 -110z"/>
</g>
</svg>
